<?xml version="1.0" encoding="UTF-8" standalone="no"?>
<!DOCTYPE svg PUBLIC "-//W3C//DTD SVG 1.1//EN"
 "http://www.w3.org/Graphics/SVG/1.1/DTD/svg11.dtd">
<!-- Generated by graphviz version 2.40.1 (20161225.0304)
 -->
<!-- Title: G Pages: 1 -->
<svg width="1456pt" height="553pt"
 viewBox="0.00 0.00 1456.00 553.00" xmlns="http://www.w3.org/2000/svg" xmlns:xlink="http://www.w3.org/1999/xlink">
<g id="graph0" class="graph" transform="scale(1 1) rotate(0) translate(4 549)">
<title>G</title>
<polygon fill="#ffffff" stroke="transparent" points="-4,4 -4,-549 1452,-549 1452,4 -4,4"/>
<g id="clust1" class="cluster">
<title>cluster_root</title>
<g id="a_clust1"><a xlink:title="eventq_index=0&#10;full_system=false&#10;sim_quantum=0&#10;time_sync_enable=false&#10;time_sync_period=100000000000&#10;time_sync_spin_threshold=100000000">
<path fill="#bab6ae" stroke="#000000" d="M20,-8C20,-8 1428,-8 1428,-8 1434,-8 1440,-14 1440,-20 1440,-20 1440,-525 1440,-525 1440,-531 1434,-537 1428,-537 1428,-537 20,-537 20,-537 14,-537 8,-531 8,-525 8,-525 8,-20 8,-20 8,-14 14,-8 20,-8"/>
<text text-anchor="middle" x="724" y="-521.8" font-family="Arial" font-size="14.00" fill="#000000">root </text>
<text text-anchor="middle" x="724" y="-506.8" font-family="Arial" font-size="14.00" fill="#000000">: Root</text>
</a>
</g>
</g>
<g id="clust2" class="cluster">
<title>cluster_system</title>
<g id="a_clust2"><a xlink:title="byte_order=little&#10;cache_line_size=64&#10;eventq_index=0&#10;exit_on_work_items=false&#10;init_param=0&#10;m5ops_base=0&#10;mem_mode=timing&#10;mem_ranges=0:2147483648&#10;memories=system.mem_ctrls0.dram system.mem_ctrls1.dram&#10;mmap_using_noreserve=false&#10;multi_thread=false&#10;&#10;um_work_ids=16&#10;&#13;eadfile=&#10;&#13;edirect_paths=&#10;shared_backstore=&#10;symbolfile=&#10;thermal_components=&#10;thermal_model=Null&#10;work_begin_ckpt_count=0&#10;work_begin_cpu_id_exit=&#45;1&#10;work_begin_exit_count=0&#10;work_cpus_ckpt_count=0&#10;work_end_ckpt_count=0&#10;work_end_exit_count=0&#10;work_item_id=&#45;1&#10;workload=Null">
<path fill="#e4e7eb" stroke="#000000" d="M28,-16C28,-16 1420,-16 1420,-16 1426,-16 1432,-22 1432,-28 1432,-28 1432,-479 1432,-479 1432,-485 1426,-491 1420,-491 1420,-491 28,-491 28,-491 22,-491 16,-485 16,-479 16,-479 16,-28 16,-28 16,-22 22,-16 28,-16"/>
<text text-anchor="middle" x="724" y="-475.8" font-family="Arial" font-size="14.00" fill="#000000">system </text>
<text text-anchor="middle" x="724" y="-460.8" font-family="Arial" font-size="14.00" fill="#000000">: SimpleSeSystem</text>
</a>
</g>
</g>
<g id="clust6" class="cluster">
<title>cluster_system_membus</title>
<g id="a_clust6"><a xlink:title="clk_domain=system.clk_domain&#10;eventq_index=0&#10;forward_latency=4&#10;frontend_latency=3&#10;header_latency=1&#10;max_outstanding_snoops=512&#10;max_routing_table_size=512&#10;point_of_coherency=true&#10;point_of_unification=true&#10;power_model=&#10;power_state=system.membus.power_state&#10;&#13;esponse_latency=2&#10;snoop_filter=system.membus.snoop_filter&#10;snoop_response_latency=4&#10;system=system&#10;use_default_range=false&#10;width=16">
<path fill="#6f798c" stroke="#000000" d="M36,-171C36,-171 288,-171 288,-171 294,-171 300,-177 300,-183 300,-183 300,-250 300,-250 300,-256 294,-262 288,-262 288,-262 36,-262 36,-262 30,-262 24,-256 24,-250 24,-250 24,-183 24,-183 24,-177 30,-171 36,-171"/>
<text text-anchor="middle" x="162" y="-246.8" font-family="Arial" font-size="14.00" fill="#000000">membus </text>
<text text-anchor="middle" x="162" y="-231.8" font-family="Arial" font-size="14.00" fill="#000000">: SystemXBar</text>
</a>
</g>
</g>
<g id="clust9" class="cluster">
<title>cluster_system_cpu_cluster</title>
<g id="a_clust9"><a xlink:title="eventq_index=0&#10;thermal_domain=Null">
<path fill="#bab6ae" stroke="#000000" d="M320,-24C320,-24 1412,-24 1412,-24 1418,-24 1424,-30 1424,-36 1424,-36 1424,-388 1424,-388 1424,-394 1418,-400 1412,-400 1412,-400 320,-400 320,-400 314,-400 308,-394 308,-388 308,-388 308,-36 308,-36 308,-30 314,-24 320,-24"/>
<text text-anchor="middle" x="866" y="-384.8" font-family="Arial" font-size="14.00" fill="#000000">cpu_cluster </text>
<text text-anchor="middle" x="866" y="-369.8" font-family="Arial" font-size="14.00" fill="#000000">: CpuCluster</text>
</a>
</g>
</g>
<g id="clust12" class="cluster">
<title>cluster_system_cpu_cluster_cpus</title>
<g id="a_clust12"><a xlink:title="branchPred=system.cpu_cluster.cpus.branchPred&#10;checker=Null&#10;clk_domain=system.cpu_cluster.clk_domain&#10;cpu_id=0&#10;decodeCycleInput=true&#10;decodeInputBufferSize=3&#10;decodeInputWidth=2&#10;decodeToExecuteForwardDelay=1&#10;do_checkpoint_insts=true&#10;do_statistics_insts=true&#10;dtb=system.cpu_cluster.cpus.dtb&#10;enableIdling=true&#10;eventq_index=0&#10;executeAllowEarlyMemoryIssue=true&#10;executeBranchDelay=1&#10;executeCommitLimit=2&#10;executeCycleInput=true&#10;executeFuncUnits=system.cpu_cluster.cpus.executeFuncUnits&#10;executeInputBufferSize=7&#10;executeInputWidth=2&#10;executeIssueLimit=2&#10;executeLSQMaxStoreBufferStoresPerCycle=2&#10;executeLSQRequestsQueueSize=1&#10;executeLSQStoreBufferSize=5&#10;executeLSQTransfersQueueSize=2&#10;executeMaxAccessesInMemory=2&#10;executeMemoryCommitLimit=1&#10;executeMemoryIssueLimit=1&#10;executeMemoryWidth=0&#10;executeSetTraceTimeOnCommit=true&#10;executeSetTraceTimeOnIssue=false&#10;fetch1FetchLimit=1&#10;fetch1LineSnapWidth=0&#10;fetch1LineWidth=0&#10;fetch1ToFetch2BackwardDelay=1&#10;fetch1ToFetch2ForwardDelay=1&#10;fetch2CycleInput=true&#10;fetch2InputBufferSize=2&#10;fetch2ToDecodeForwardDelay=1&#10;function_trace=false&#10;function_trace_start=0&#10;interrupts=system.cpu_cluster.cpus.interrupts&#10;isa=system.cpu_cluster.cpus.isa&#10;itb=system.cpu_cluster.cpus.itb&#10;max_insts_all_threads=0&#10;max_insts_any_thread=0&#10;&#10;umThreads=1&#10;power_gating_on_idle=false&#10;power_model=&#10;power_state=system.cpu_cluster.cpus.power_state&#10;progress_interval=0&#10;pwr_gating_latency=300&#10;simpoint_start_insts=&#10;socket_id=0&#10;switched_out=false&#10;syscallRetryLatency=10000&#10;system=system&#10;threadPolicy=RoundRobin&#10;tracer=system.cpu_cluster.cpus.tracer&#10;wait_for_remote_gdb=false&#10;workload=system.cpu_cluster.cpus.workload">
<path fill="#bbc6d9" stroke="#000000" d="M612,-32C612,-32 1404,-32 1404,-32 1410,-32 1416,-38 1416,-44 1416,-44 1416,-342 1416,-342 1416,-348 1410,-354 1404,-354 1404,-354 612,-354 612,-354 606,-354 600,-348 600,-342 600,-342 600,-44 600,-44 600,-38 606,-32 612,-32"/>
<text text-anchor="middle" x="1008" y="-338.8" font-family="Arial" font-size="14.00" fill="#000000">cpus </text>
<text text-anchor="middle" x="1008" y="-323.8" font-family="Arial" font-size="14.00" fill="#000000">: MinorCPU</text>
</a>
</g>
</g>
<g id="clust97" class="cluster">
<title>cluster_system_cpu_cluster_cpus_dtb</title>
<g id="a_clust97"><a xlink:title="eventq_index=0&#10;is_stage2=false&#10;size=64&#10;sys=system&#10;walker=system.cpu_cluster.cpus.dtb.walker">
<path fill="#bab6ae" stroke="#000000" d="M1274,-163C1274,-163 1395,-163 1395,-163 1401,-163 1407,-169 1407,-175 1407,-175 1407,-296 1407,-296 1407,-302 1401,-308 1395,-308 1395,-308 1274,-308 1274,-308 1268,-308 1262,-302 1262,-296 1262,-296 1262,-175 1262,-175 1262,-169 1268,-163 1274,-163"/>
<text text-anchor="middle" x="1334.5" y="-292.8" font-family="Arial" font-size="14.00" fill="#000000">dtb </text>
<text text-anchor="middle" x="1334.5" y="-277.8" font-family="Arial" font-size="14.00" fill="#000000">: ArmDTB</text>
</a>
</g>
</g>
<g id="clust102" class="cluster">
<title>cluster_system_cpu_cluster_cpus_dtb_walker</title>
<g id="a_clust102"><a xlink:title="clk_domain=system.cpu_cluster.clk_domain&#10;eventq_index=0&#10;is_stage2=false&#10;&#10;um_squash_per_cycle=2&#10;power_model=&#10;power_state=system.cpu_cluster.cpus.dtb.walker.power_state&#10;sys=system">
<path fill="#9f9c95" stroke="#000000" d="M1282,-171C1282,-171 1387,-171 1387,-171 1393,-171 1399,-177 1399,-183 1399,-183 1399,-250 1399,-250 1399,-256 1393,-262 1387,-262 1387,-262 1282,-262 1282,-262 1276,-262 1270,-256 1270,-250 1270,-250 1270,-183 1270,-183 1270,-177 1276,-171 1282,-171"/>
<text text-anchor="middle" x="1334.5" y="-246.8" font-family="Arial" font-size="14.00" fill="#000000">walker </text>
<text text-anchor="middle" x="1334.5" y="-231.8" font-family="Arial" font-size="14.00" fill="#000000">: ArmTableWalker</text>
</a>
</g>
</g>
<g id="clust104" class="cluster">
<title>cluster_system_cpu_cluster_cpus_itb</title>
<g id="a_clust104"><a xlink:title="eventq_index=0&#10;is_stage2=false&#10;size=64&#10;sys=system&#10;walker=system.cpu_cluster.cpus.itb.walker">
<path fill="#bab6ae" stroke="#000000" d="M1096,-163C1096,-163 1217,-163 1217,-163 1223,-163 1229,-169 1229,-175 1229,-175 1229,-296 1229,-296 1229,-302 1223,-308 1217,-308 1217,-308 1096,-308 1096,-308 1090,-308 1084,-302 1084,-296 1084,-296 1084,-175 1084,-175 1084,-169 1090,-163 1096,-163"/>
<text text-anchor="middle" x="1156.5" y="-292.8" font-family="Arial" font-size="14.00" fill="#000000">itb </text>
<text text-anchor="middle" x="1156.5" y="-277.8" font-family="Arial" font-size="14.00" fill="#000000">: ArmITB</text>
</a>
</g>
</g>
<g id="clust109" class="cluster">
<title>cluster_system_cpu_cluster_cpus_itb_walker</title>
<g id="a_clust109"><a xlink:title="clk_domain=system.cpu_cluster.clk_domain&#10;eventq_index=0&#10;is_stage2=false&#10;&#10;um_squash_per_cycle=2&#10;power_model=&#10;power_state=system.cpu_cluster.cpus.itb.walker.power_state&#10;sys=system">
<path fill="#9f9c95" stroke="#000000" d="M1104,-171C1104,-171 1209,-171 1209,-171 1215,-171 1221,-177 1221,-183 1221,-183 1221,-250 1221,-250 1221,-256 1215,-262 1209,-262 1209,-262 1104,-262 1104,-262 1098,-262 1092,-256 1092,-250 1092,-250 1092,-183 1092,-183 1092,-177 1098,-171 1104,-171"/>
<text text-anchor="middle" x="1156.5" y="-246.8" font-family="Arial" font-size="14.00" fill="#000000">walker </text>
<text text-anchor="middle" x="1156.5" y="-231.8" font-family="Arial" font-size="14.00" fill="#000000">: ArmTableWalker</text>
</a>
</g>
</g>
<g id="clust115" class="cluster">
<title>cluster_system_cpu_cluster_cpus_icache</title>
<g id="a_clust115"><a xlink:title="addr_ranges=0:18446744073709551615&#10;assoc=3&#10;clk_domain=system.cpu_cluster.clk_domain&#10;clusivity=mostly_incl&#10;compressor=Null&#10;data_latency=1&#10;demand_mshr_reserve=1&#10;eventq_index=0&#10;is_read_only=true&#10;max_miss_count=0&#10;mshrs=4&#10;power_model=&#10;power_state=system.cpu_cluster.cpus.icache.power_state&#10;prefetch_on_access=false&#10;prefetcher=Null&#10;&#13;eplacement_policy=system.cpu_cluster.cpus.icache.replacement_policy&#10;&#13;esponse_latency=1&#10;sequential_access=false&#10;size=49152&#10;system=system&#10;tag_latency=1&#10;tags=system.cpu_cluster.cpus.icache.tags&#10;tgts_per_mshr=8&#10;warmup_percentage=0&#10;write_allocator=Null&#10;write_buffers=8&#10;writeback_clean=true">
<path fill="#bab6ae" stroke="#000000" d="M822,-40C822,-40 992,-40 992,-40 998,-40 1004,-46 1004,-52 1004,-52 1004,-119 1004,-119 1004,-125 998,-131 992,-131 992,-131 822,-131 822,-131 816,-131 810,-125 810,-119 810,-119 810,-52 810,-52 810,-46 816,-40 822,-40"/>
<text text-anchor="middle" x="907" y="-115.8" font-family="Arial" font-size="14.00" fill="#000000">icache </text>
<text text-anchor="middle" x="907" y="-100.8" font-family="Arial" font-size="14.00" fill="#000000">: L1I</text>
</a>
</g>
</g>
<g id="clust121" class="cluster">
<title>cluster_system_cpu_cluster_cpus_dcache</title>
<g id="a_clust121"><a xlink:title="addr_ranges=0:18446744073709551615&#10;assoc=2&#10;clk_domain=system.cpu_cluster.clk_domain&#10;clusivity=mostly_incl&#10;compressor=Null&#10;data_latency=2&#10;demand_mshr_reserve=1&#10;eventq_index=0&#10;is_read_only=false&#10;max_miss_count=0&#10;mshrs=16&#10;power_model=&#10;power_state=system.cpu_cluster.cpus.dcache.power_state&#10;prefetch_on_access=false&#10;prefetcher=Null&#10;&#13;eplacement_policy=system.cpu_cluster.cpus.dcache.replacement_policy&#10;&#13;esponse_latency=1&#10;sequential_access=false&#10;size=32768&#10;system=system&#10;tag_latency=2&#10;tags=system.cpu_cluster.cpus.dcache.tags&#10;tgts_per_mshr=16&#10;warmup_percentage=0&#10;write_allocator=Null&#10;write_buffers=16&#10;writeback_clean=false">
<path fill="#bab6ae" stroke="#000000" d="M620,-40C620,-40 790,-40 790,-40 796,-40 802,-46 802,-52 802,-52 802,-119 802,-119 802,-125 796,-131 790,-131 790,-131 620,-131 620,-131 614,-131 608,-125 608,-119 608,-119 608,-52 608,-52 608,-46 614,-40 620,-40"/>
<text text-anchor="middle" x="705" y="-115.8" font-family="Arial" font-size="14.00" fill="#000000">dcache </text>
<text text-anchor="middle" x="705" y="-100.8" font-family="Arial" font-size="14.00" fill="#000000">: L1D</text>
</a>
</g>
</g>
<g id="clust127" class="cluster">
<title>cluster_system_cpu_cluster_cpus_itb_walker_cache</title>
<g id="a_clust127"><a xlink:title="addr_ranges=0:18446744073709551615&#10;assoc=8&#10;clk_domain=system.cpu_cluster.clk_domain&#10;clusivity=mostly_incl&#10;compressor=Null&#10;data_latency=4&#10;demand_mshr_reserve=1&#10;eventq_index=0&#10;is_read_only=true&#10;max_miss_count=0&#10;mshrs=6&#10;power_model=&#10;power_state=system.cpu_cluster.cpus.itb_walker_cache.power_state&#10;prefetch_on_access=false&#10;prefetcher=Null&#10;&#13;eplacement_policy=system.cpu_cluster.cpus.itb_walker_cache.replacement_policy&#10;&#13;esponse_latency=4&#10;sequential_access=false&#10;size=1024&#10;system=system&#10;tag_latency=4&#10;tags=system.cpu_cluster.cpus.itb_walker_cache.tags&#10;tgts_per_mshr=8&#10;warmup_percentage=0&#10;write_allocator=Null&#10;write_buffers=16&#10;writeback_clean=true">
<path fill="#bab6ae" stroke="#000000" d="M1024,-40C1024,-40 1194,-40 1194,-40 1200,-40 1206,-46 1206,-52 1206,-52 1206,-119 1206,-119 1206,-125 1200,-131 1194,-131 1194,-131 1024,-131 1024,-131 1018,-131 1012,-125 1012,-119 1012,-119 1012,-52 1012,-52 1012,-46 1018,-40 1024,-40"/>
<text text-anchor="middle" x="1109" y="-115.8" font-family="Arial" font-size="14.00" fill="#000000">itb_walker_cache </text>
<text text-anchor="middle" x="1109" y="-100.8" font-family="Arial" font-size="14.00" fill="#000000">: WalkCache</text>
</a>
</g>
</g>
<g id="clust133" class="cluster">
<title>cluster_system_cpu_cluster_cpus_dtb_walker_cache</title>
<g id="a_clust133"><a xlink:title="addr_ranges=0:18446744073709551615&#10;assoc=8&#10;clk_domain=system.cpu_cluster.clk_domain&#10;clusivity=mostly_incl&#10;compressor=Null&#10;data_latency=4&#10;demand_mshr_reserve=1&#10;eventq_index=0&#10;is_read_only=true&#10;max_miss_count=0&#10;mshrs=6&#10;power_model=&#10;power_state=system.cpu_cluster.cpus.dtb_walker_cache.power_state&#10;prefetch_on_access=false&#10;prefetcher=Null&#10;&#13;eplacement_policy=system.cpu_cluster.cpus.dtb_walker_cache.replacement_policy&#10;&#13;esponse_latency=4&#10;sequential_access=false&#10;size=1024&#10;system=system&#10;tag_latency=4&#10;tags=system.cpu_cluster.cpus.dtb_walker_cache.tags&#10;tgts_per_mshr=8&#10;warmup_percentage=0&#10;write_allocator=Null&#10;write_buffers=16&#10;writeback_clean=true">
<path fill="#bab6ae" stroke="#000000" d="M1226,-40C1226,-40 1396,-40 1396,-40 1402,-40 1408,-46 1408,-52 1408,-52 1408,-119 1408,-119 1408,-125 1402,-131 1396,-131 1396,-131 1226,-131 1226,-131 1220,-131 1214,-125 1214,-119 1214,-119 1214,-52 1214,-52 1214,-46 1220,-40 1226,-40"/>
<text text-anchor="middle" x="1311" y="-115.8" font-family="Arial" font-size="14.00" fill="#000000">dtb_walker_cache </text>
<text text-anchor="middle" x="1311" y="-100.8" font-family="Arial" font-size="14.00" fill="#000000">: WalkCache</text>
</a>
</g>
</g>
<g id="clust140" class="cluster">
<title>cluster_system_cpu_cluster_toL2Bus</title>
<g id="a_clust140"><a xlink:title="clk_domain=system.cpu_cluster.clk_domain&#10;eventq_index=0&#10;forward_latency=0&#10;frontend_latency=1&#10;header_latency=1&#10;max_outstanding_snoops=512&#10;max_routing_table_size=512&#10;point_of_coherency=false&#10;point_of_unification=true&#10;power_model=&#10;power_state=system.cpu_cluster.toL2Bus.power_state&#10;&#13;esponse_latency=1&#10;snoop_filter=system.cpu_cluster.toL2Bus.snoop_filter&#10;snoop_response_latency=1&#10;system=system&#10;use_default_range=false&#10;width=64">
<path fill="#6f798c" stroke="#000000" d="M328,-171C328,-171 580,-171 580,-171 586,-171 592,-177 592,-183 592,-183 592,-250 592,-250 592,-256 586,-262 580,-262 580,-262 328,-262 328,-262 322,-262 316,-256 316,-250 316,-250 316,-183 316,-183 316,-177 322,-171 328,-171"/>
<text text-anchor="middle" x="454" y="-246.8" font-family="Arial" font-size="14.00" fill="#000000">toL2Bus </text>
<text text-anchor="middle" x="454" y="-231.8" font-family="Arial" font-size="14.00" fill="#000000">: L2XBar</text>
</a>
</g>
</g>
<g id="clust143" class="cluster">
<title>cluster_system_cpu_cluster_l2</title>
<g id="a_clust143"><a xlink:title="addr_ranges=0:18446744073709551615&#10;assoc=16&#10;clk_domain=system.cpu_cluster.clk_domain&#10;clusivity=mostly_excl&#10;compressor=Null&#10;data_latency=12&#10;demand_mshr_reserve=1&#10;eventq_index=0&#10;is_read_only=false&#10;max_miss_count=0&#10;mshrs=32&#10;power_model=&#10;power_state=system.cpu_cluster.l2.power_state&#10;prefetch_on_access=false&#10;prefetcher=Null&#10;&#13;eplacement_policy=system.cpu_cluster.l2.replacement_policy&#10;&#13;esponse_latency=5&#10;sequential_access=false&#10;size=1048576&#10;system=system&#10;tag_latency=12&#10;tags=system.cpu_cluster.l2.tags&#10;tgts_per_mshr=8&#10;warmup_percentage=0&#10;write_allocator=Null&#10;write_buffers=8&#10;writeback_clean=false">
<path fill="#9f9c95" stroke="#000000" d="M328,-40C328,-40 498,-40 498,-40 504,-40 510,-46 510,-52 510,-52 510,-119 510,-119 510,-125 504,-131 498,-131 498,-131 328,-131 328,-131 322,-131 316,-125 316,-119 316,-119 316,-52 316,-52 316,-46 322,-40 328,-40"/>
<text text-anchor="middle" x="413" y="-115.8" font-family="Arial" font-size="14.00" fill="#000000">l2 </text>
<text text-anchor="middle" x="413" y="-100.8" font-family="Arial" font-size="14.00" fill="#000000">: L2</text>
</a>
</g>
</g>
<g id="clust149" class="cluster">
<title>cluster_system_mem_ctrls0</title>
<g id="a_clust149"><a xlink:title="clk_domain=system.clk_domain&#10;command_window=10000&#10;dram=system.mem_ctrls0.dram&#10;eventq_index=0&#10;mem_sched_policy=frfcfs&#10;min_writes_per_switch=16&#10;&#10;vm=Null&#10;power_model=&#10;power_state=system.mem_ctrls0.power_state&#10;qos_policy=Null&#10;qos_priorities=1&#10;qos_priority_escalation=false&#10;qos_q_policy=fifo&#10;qos_requestors= &#160;&#160;&#160;&#160;&#160;&#160;&#160;&#160;&#160;&#160;&#160;&#160;&#160;&#160;&#10;qos_syncro_scheduler=false&#10;qos_turnaround_policy=Null&#10;static_backend_latency=10000&#10;static_frontend_latency=10000&#10;system=system&#10;write_high_thresh_perc=85&#10;write_low_thresh_perc=50">
<path fill="#bab6ae" stroke="#000000" d="M41,-40C41,-40 112,-40 112,-40 118,-40 124,-46 124,-52 124,-52 124,-119 124,-119 124,-125 118,-131 112,-131 112,-131 41,-131 41,-131 35,-131 29,-125 29,-119 29,-119 29,-52 29,-52 29,-46 35,-40 41,-40"/>
<text text-anchor="middle" x="76.5" y="-115.8" font-family="Arial" font-size="14.00" fill="#000000">mem_ctrls0 </text>
<text text-anchor="middle" x="76.5" y="-100.8" font-family="Arial" font-size="14.00" fill="#000000">: MemCtrl</text>
</a>
</g>
</g>
<g id="clust153" class="cluster">
<title>cluster_system_mem_ctrls1</title>
<g id="a_clust153"><a xlink:title="clk_domain=system.clk_domain&#10;command_window=10000&#10;dram=system.mem_ctrls1.dram&#10;eventq_index=0&#10;mem_sched_policy=frfcfs&#10;min_writes_per_switch=16&#10;&#10;vm=Null&#10;power_model=&#10;power_state=system.mem_ctrls1.power_state&#10;qos_policy=Null&#10;qos_priorities=1&#10;qos_priority_escalation=false&#10;qos_q_policy=fifo&#10;qos_requestors= &#160;&#160;&#160;&#160;&#160;&#160;&#160;&#160;&#160;&#160;&#160;&#160;&#160;&#160;&#10;qos_syncro_scheduler=false&#10;qos_turnaround_policy=Null&#10;static_backend_latency=10000&#10;static_frontend_latency=10000&#10;system=system&#10;write_high_thresh_perc=85&#10;write_low_thresh_perc=50">
<path fill="#bab6ae" stroke="#000000" d="M144,-40C144,-40 215,-40 215,-40 221,-40 227,-46 227,-52 227,-52 227,-119 227,-119 227,-125 221,-131 215,-131 215,-131 144,-131 144,-131 138,-131 132,-125 132,-119 132,-119 132,-52 132,-52 132,-46 138,-40 144,-40"/>
<text text-anchor="middle" x="179.5" y="-115.8" font-family="Arial" font-size="14.00" fill="#000000">mem_ctrls1 </text>
<text text-anchor="middle" x="179.5" y="-100.8" font-family="Arial" font-size="14.00" fill="#000000">: MemCtrl</text>
</a>
</g>
</g>
<!-- system_system_port -->
<g id="node1" class="node">
<title>system_system_port</title>
<path fill="#b6b8bc" stroke="#000000" d="M198,-408.5C198,-408.5 270,-408.5 270,-408.5 276,-408.5 282,-414.5 282,-420.5 282,-420.5 282,-432.5 282,-432.5 282,-438.5 276,-444.5 270,-444.5 270,-444.5 198,-444.5 198,-444.5 192,-444.5 186,-438.5 186,-432.5 186,-432.5 186,-420.5 186,-420.5 186,-414.5 192,-408.5 198,-408.5"/>
<text text-anchor="middle" x="234" y="-422.8" font-family="Arial" font-size="14.00" fill="#000000">system_port</text>
</g>
<!-- system_membus_cpu_side_ports -->
<g id="node2" class="node">
<title>system_membus_cpu_side_ports</title>
<path fill="#586070" stroke="#000000" d="M188,-179.5C188,-179.5 280,-179.5 280,-179.5 286,-179.5 292,-185.5 292,-191.5 292,-191.5 292,-203.5 292,-203.5 292,-209.5 286,-215.5 280,-215.5 280,-215.5 188,-215.5 188,-215.5 182,-215.5 176,-209.5 176,-203.5 176,-203.5 176,-191.5 176,-191.5 176,-185.5 182,-179.5 188,-179.5"/>
<text text-anchor="middle" x="234" y="-193.8" font-family="Arial" font-size="14.00" fill="#000000">cpu_side_ports</text>
</g>
<!-- system_system_port&#45;&gt;system_membus_cpu_side_ports -->
<g id="edge1" class="edge">
<title>system_system_port&#45;&gt;system_membus_cpu_side_ports</title>
<path fill="none" stroke="#000000" d="M234,-408.1471C234,-368.2689 234,-273.4784 234,-225.8466"/>
<polygon fill="#000000" stroke="#000000" points="237.5001,-225.6224 234,-215.6225 230.5001,-225.6225 237.5001,-225.6224"/>
</g>
<!-- system_cpu_cluster_l2_mem_side -->
<g id="node19" class="node">
<title>system_cpu_cluster_l2_mem_side</title>
<path fill="#7f7c77" stroke="#000000" d="M336,-48.5C336,-48.5 396,-48.5 396,-48.5 402,-48.5 408,-54.5 408,-60.5 408,-60.5 408,-72.5 408,-72.5 408,-78.5 402,-84.5 396,-84.5 396,-84.5 336,-84.5 336,-84.5 330,-84.5 324,-78.5 324,-72.5 324,-72.5 324,-60.5 324,-60.5 324,-54.5 330,-48.5 336,-48.5"/>
<text text-anchor="middle" x="366" y="-62.8" font-family="Arial" font-size="14.00" fill="#000000">mem_side</text>
</g>
<!-- system_membus_cpu_side_ports&#45;&gt;system_cpu_cluster_l2_mem_side -->
<g id="edge2" class="edge">
<title>system_membus_cpu_side_ports&#45;&gt;system_cpu_cluster_l2_mem_side</title>
<path fill="none" stroke="#000000" d="M259.6037,-172.0903C285.5144,-146.3758 324.9234,-107.2654 347.8018,-84.5603"/>
<polygon fill="#000000" stroke="#000000" points="256.9865,-169.7566 252.354,-179.285 261.9174,-174.7251 256.9865,-169.7566"/>
</g>
<!-- system_membus_mem_side_ports -->
<g id="node3" class="node">
<title>system_membus_mem_side_ports</title>
<path fill="#586070" stroke="#000000" d="M44.5,-179.5C44.5,-179.5 145.5,-179.5 145.5,-179.5 151.5,-179.5 157.5,-185.5 157.5,-191.5 157.5,-191.5 157.5,-203.5 157.5,-203.5 157.5,-209.5 151.5,-215.5 145.5,-215.5 145.5,-215.5 44.5,-215.5 44.5,-215.5 38.5,-215.5 32.5,-209.5 32.5,-203.5 32.5,-203.5 32.5,-191.5 32.5,-191.5 32.5,-185.5 38.5,-179.5 44.5,-179.5"/>
<text text-anchor="middle" x="95" y="-193.8" font-family="Arial" font-size="14.00" fill="#000000">mem_side_ports</text>
</g>
<!-- system_mem_ctrls0_port -->
<g id="node20" class="node">
<title>system_mem_ctrls0_port</title>
<path fill="#94918b" stroke="#000000" d="M74,-48.5C74,-48.5 104,-48.5 104,-48.5 110,-48.5 116,-54.5 116,-60.5 116,-60.5 116,-72.5 116,-72.5 116,-78.5 110,-84.5 104,-84.5 104,-84.5 74,-84.5 74,-84.5 68,-84.5 62,-78.5 62,-72.5 62,-72.5 62,-60.5 62,-60.5 62,-54.5 68,-48.5 74,-48.5"/>
<text text-anchor="middle" x="89" y="-62.8" font-family="Arial" font-size="14.00" fill="#000000">port</text>
</g>
<!-- system_membus_mem_side_ports&#45;&gt;system_mem_ctrls0_port -->
<g id="edge3" class="edge">
<title>system_membus_mem_side_ports&#45;&gt;system_mem_ctrls0_port</title>
<path fill="none" stroke="#000000" d="M94.1657,-179.285C93.1627,-157.3856 91.4681,-120.3861 90.2946,-94.7663"/>
<polygon fill="#000000" stroke="#000000" points="93.7812,-94.3896 89.8272,-84.5603 86.7885,-94.71 93.7812,-94.3896"/>
</g>
<!-- system_mem_ctrls1_port -->
<g id="node21" class="node">
<title>system_mem_ctrls1_port</title>
<path fill="#94918b" stroke="#000000" d="M152,-48.5C152,-48.5 182,-48.5 182,-48.5 188,-48.5 194,-54.5 194,-60.5 194,-60.5 194,-72.5 194,-72.5 194,-78.5 188,-84.5 182,-84.5 182,-84.5 152,-84.5 152,-84.5 146,-84.5 140,-78.5 140,-72.5 140,-72.5 140,-60.5 140,-60.5 140,-54.5 146,-48.5 152,-48.5"/>
<text text-anchor="middle" x="167" y="-62.8" font-family="Arial" font-size="14.00" fill="#000000">port</text>
</g>
<!-- system_membus_mem_side_ports&#45;&gt;system_mem_ctrls1_port -->
<g id="edge4" class="edge">
<title>system_membus_mem_side_ports&#45;&gt;system_mem_ctrls1_port</title>
<path fill="none" stroke="#000000" d="M105.0113,-179.285C117.2626,-156.9945 138.1121,-119.0599 152.2126,-93.4048"/>
<polygon fill="#000000" stroke="#000000" points="155.3243,-95.0097 157.0737,-84.5603 149.1898,-91.638 155.3243,-95.0097"/>
</g>
<!-- system_cpu_cluster_cpus_icache_port -->
<g id="node4" class="node">
<title>system_cpu_cluster_cpus_icache_port</title>
<path fill="#959ead" stroke="#000000" d="M924,-179.5C924,-179.5 992,-179.5 992,-179.5 998,-179.5 1004,-185.5 1004,-191.5 1004,-191.5 1004,-203.5 1004,-203.5 1004,-209.5 998,-215.5 992,-215.5 992,-215.5 924,-215.5 924,-215.5 918,-215.5 912,-209.5 912,-203.5 912,-203.5 912,-191.5 912,-191.5 912,-185.5 918,-179.5 924,-179.5"/>
<text text-anchor="middle" x="958" y="-193.8" font-family="Arial" font-size="14.00" fill="#000000">icache_port</text>
</g>
<!-- system_cpu_cluster_cpus_icache_cpu_side -->
<g id="node8" class="node">
<title>system_cpu_cluster_cpus_icache_cpu_side</title>
<path fill="#94918b" stroke="#000000" d="M932,-48.5C932,-48.5 984,-48.5 984,-48.5 990,-48.5 996,-54.5 996,-60.5 996,-60.5 996,-72.5 996,-72.5 996,-78.5 990,-84.5 984,-84.5 984,-84.5 932,-84.5 932,-84.5 926,-84.5 920,-78.5 920,-72.5 920,-72.5 920,-60.5 920,-60.5 920,-54.5 926,-48.5 932,-48.5"/>
<text text-anchor="middle" x="958" y="-62.8" font-family="Arial" font-size="14.00" fill="#000000">cpu_side</text>
</g>
<!-- system_cpu_cluster_cpus_icache_port&#45;&gt;system_cpu_cluster_cpus_icache_cpu_side -->
<g id="edge5" class="edge">
<title>system_cpu_cluster_cpus_icache_port&#45;&gt;system_cpu_cluster_cpus_icache_cpu_side</title>
<path fill="none" stroke="#000000" d="M958,-179.285C958,-157.3856 958,-120.3861 958,-94.7663"/>
<polygon fill="#000000" stroke="#000000" points="961.5001,-94.5603 958,-84.5603 954.5001,-94.5603 961.5001,-94.5603"/>
</g>
<!-- system_cpu_cluster_cpus_dcache_port -->
<g id="node5" class="node">
<title>system_cpu_cluster_cpus_dcache_port</title>
<path fill="#959ead" stroke="#000000" d="M719,-179.5C719,-179.5 793,-179.5 793,-179.5 799,-179.5 805,-185.5 805,-191.5 805,-191.5 805,-203.5 805,-203.5 805,-209.5 799,-215.5 793,-215.5 793,-215.5 719,-215.5 719,-215.5 713,-215.5 707,-209.5 707,-203.5 707,-203.5 707,-191.5 707,-191.5 707,-185.5 713,-179.5 719,-179.5"/>
<text text-anchor="middle" x="756" y="-193.8" font-family="Arial" font-size="14.00" fill="#000000">dcache_port</text>
</g>
<!-- system_cpu_cluster_cpus_dcache_cpu_side -->
<g id="node10" class="node">
<title>system_cpu_cluster_cpus_dcache_cpu_side</title>
<path fill="#94918b" stroke="#000000" d="M730,-48.5C730,-48.5 782,-48.5 782,-48.5 788,-48.5 794,-54.5 794,-60.5 794,-60.5 794,-72.5 794,-72.5 794,-78.5 788,-84.5 782,-84.5 782,-84.5 730,-84.5 730,-84.5 724,-84.5 718,-78.5 718,-72.5 718,-72.5 718,-60.5 718,-60.5 718,-54.5 724,-48.5 730,-48.5"/>
<text text-anchor="middle" x="756" y="-62.8" font-family="Arial" font-size="14.00" fill="#000000">cpu_side</text>
</g>
<!-- system_cpu_cluster_cpus_dcache_port&#45;&gt;system_cpu_cluster_cpus_dcache_cpu_side -->
<g id="edge6" class="edge">
<title>system_cpu_cluster_cpus_dcache_port&#45;&gt;system_cpu_cluster_cpus_dcache_cpu_side</title>
<path fill="none" stroke="#000000" d="M756,-179.285C756,-157.3856 756,-120.3861 756,-94.7663"/>
<polygon fill="#000000" stroke="#000000" points="759.5001,-94.5603 756,-84.5603 752.5001,-94.5603 759.5001,-94.5603"/>
</g>
<!-- system_cpu_cluster_cpus_dtb_walker_port -->
<g id="node6" class="node">
<title>system_cpu_cluster_cpus_dtb_walker_port</title>
<path fill="#7f7c77" stroke="#000000" d="M1347,-179.5C1347,-179.5 1377,-179.5 1377,-179.5 1383,-179.5 1389,-185.5 1389,-191.5 1389,-191.5 1389,-203.5 1389,-203.5 1389,-209.5 1383,-215.5 1377,-215.5 1377,-215.5 1347,-215.5 1347,-215.5 1341,-215.5 1335,-209.5 1335,-203.5 1335,-203.5 1335,-191.5 1335,-191.5 1335,-185.5 1341,-179.5 1347,-179.5"/>
<text text-anchor="middle" x="1362" y="-193.8" font-family="Arial" font-size="14.00" fill="#000000">port</text>
</g>
<!-- system_cpu_cluster_cpus_dtb_walker_cache_cpu_side -->
<g id="node14" class="node">
<title>system_cpu_cluster_cpus_dtb_walker_cache_cpu_side</title>
<path fill="#94918b" stroke="#000000" d="M1336,-48.5C1336,-48.5 1388,-48.5 1388,-48.5 1394,-48.5 1400,-54.5 1400,-60.5 1400,-60.5 1400,-72.5 1400,-72.5 1400,-78.5 1394,-84.5 1388,-84.5 1388,-84.5 1336,-84.5 1336,-84.5 1330,-84.5 1324,-78.5 1324,-72.5 1324,-72.5 1324,-60.5 1324,-60.5 1324,-54.5 1330,-48.5 1336,-48.5"/>
<text text-anchor="middle" x="1362" y="-62.8" font-family="Arial" font-size="14.00" fill="#000000">cpu_side</text>
</g>
<!-- system_cpu_cluster_cpus_dtb_walker_port&#45;&gt;system_cpu_cluster_cpus_dtb_walker_cache_cpu_side -->
<g id="edge7" class="edge">
<title>system_cpu_cluster_cpus_dtb_walker_port&#45;&gt;system_cpu_cluster_cpus_dtb_walker_cache_cpu_side</title>
<path fill="none" stroke="#000000" d="M1362,-179.285C1362,-157.3856 1362,-120.3861 1362,-94.7663"/>
<polygon fill="#000000" stroke="#000000" points="1365.5001,-94.5603 1362,-84.5603 1358.5001,-94.5603 1365.5001,-94.5603"/>
</g>
<!-- system_cpu_cluster_cpus_itb_walker_port -->
<g id="node7" class="node">
<title>system_cpu_cluster_cpus_itb_walker_port</title>
<path fill="#7f7c77" stroke="#000000" d="M1145,-179.5C1145,-179.5 1175,-179.5 1175,-179.5 1181,-179.5 1187,-185.5 1187,-191.5 1187,-191.5 1187,-203.5 1187,-203.5 1187,-209.5 1181,-215.5 1175,-215.5 1175,-215.5 1145,-215.5 1145,-215.5 1139,-215.5 1133,-209.5 1133,-203.5 1133,-203.5 1133,-191.5 1133,-191.5 1133,-185.5 1139,-179.5 1145,-179.5"/>
<text text-anchor="middle" x="1160" y="-193.8" font-family="Arial" font-size="14.00" fill="#000000">port</text>
</g>
<!-- system_cpu_cluster_cpus_itb_walker_cache_cpu_side -->
<g id="node12" class="node">
<title>system_cpu_cluster_cpus_itb_walker_cache_cpu_side</title>
<path fill="#94918b" stroke="#000000" d="M1134,-48.5C1134,-48.5 1186,-48.5 1186,-48.5 1192,-48.5 1198,-54.5 1198,-60.5 1198,-60.5 1198,-72.5 1198,-72.5 1198,-78.5 1192,-84.5 1186,-84.5 1186,-84.5 1134,-84.5 1134,-84.5 1128,-84.5 1122,-78.5 1122,-72.5 1122,-72.5 1122,-60.5 1122,-60.5 1122,-54.5 1128,-48.5 1134,-48.5"/>
<text text-anchor="middle" x="1160" y="-62.8" font-family="Arial" font-size="14.00" fill="#000000">cpu_side</text>
</g>
<!-- system_cpu_cluster_cpus_itb_walker_port&#45;&gt;system_cpu_cluster_cpus_itb_walker_cache_cpu_side -->
<g id="edge8" class="edge">
<title>system_cpu_cluster_cpus_itb_walker_port&#45;&gt;system_cpu_cluster_cpus_itb_walker_cache_cpu_side</title>
<path fill="none" stroke="#000000" d="M1160,-179.285C1160,-157.3856 1160,-120.3861 1160,-94.7663"/>
<polygon fill="#000000" stroke="#000000" points="1163.5001,-94.5603 1160,-84.5603 1156.5001,-94.5603 1163.5001,-94.5603"/>
</g>
<!-- system_cpu_cluster_cpus_icache_mem_side -->
<g id="node9" class="node">
<title>system_cpu_cluster_cpus_icache_mem_side</title>
<path fill="#94918b" stroke="#000000" d="M830,-48.5C830,-48.5 890,-48.5 890,-48.5 896,-48.5 902,-54.5 902,-60.5 902,-60.5 902,-72.5 902,-72.5 902,-78.5 896,-84.5 890,-84.5 890,-84.5 830,-84.5 830,-84.5 824,-84.5 818,-78.5 818,-72.5 818,-72.5 818,-60.5 818,-60.5 818,-54.5 824,-48.5 830,-48.5"/>
<text text-anchor="middle" x="860" y="-62.8" font-family="Arial" font-size="14.00" fill="#000000">mem_side</text>
</g>
<!-- system_cpu_cluster_cpus_dcache_mem_side -->
<g id="node11" class="node">
<title>system_cpu_cluster_cpus_dcache_mem_side</title>
<path fill="#94918b" stroke="#000000" d="M628,-48.5C628,-48.5 688,-48.5 688,-48.5 694,-48.5 700,-54.5 700,-60.5 700,-60.5 700,-72.5 700,-72.5 700,-78.5 694,-84.5 688,-84.5 688,-84.5 628,-84.5 628,-84.5 622,-84.5 616,-78.5 616,-72.5 616,-72.5 616,-60.5 616,-60.5 616,-54.5 622,-48.5 628,-48.5"/>
<text text-anchor="middle" x="658" y="-62.8" font-family="Arial" font-size="14.00" fill="#000000">mem_side</text>
</g>
<!-- system_cpu_cluster_cpus_itb_walker_cache_mem_side -->
<g id="node13" class="node">
<title>system_cpu_cluster_cpus_itb_walker_cache_mem_side</title>
<path fill="#94918b" stroke="#000000" d="M1032,-48.5C1032,-48.5 1092,-48.5 1092,-48.5 1098,-48.5 1104,-54.5 1104,-60.5 1104,-60.5 1104,-72.5 1104,-72.5 1104,-78.5 1098,-84.5 1092,-84.5 1092,-84.5 1032,-84.5 1032,-84.5 1026,-84.5 1020,-78.5 1020,-72.5 1020,-72.5 1020,-60.5 1020,-60.5 1020,-54.5 1026,-48.5 1032,-48.5"/>
<text text-anchor="middle" x="1062" y="-62.8" font-family="Arial" font-size="14.00" fill="#000000">mem_side</text>
</g>
<!-- system_cpu_cluster_cpus_dtb_walker_cache_mem_side -->
<g id="node15" class="node">
<title>system_cpu_cluster_cpus_dtb_walker_cache_mem_side</title>
<path fill="#94918b" stroke="#000000" d="M1234,-48.5C1234,-48.5 1294,-48.5 1294,-48.5 1300,-48.5 1306,-54.5 1306,-60.5 1306,-60.5 1306,-72.5 1306,-72.5 1306,-78.5 1300,-84.5 1294,-84.5 1294,-84.5 1234,-84.5 1234,-84.5 1228,-84.5 1222,-78.5 1222,-72.5 1222,-72.5 1222,-60.5 1222,-60.5 1222,-54.5 1228,-48.5 1234,-48.5"/>
<text text-anchor="middle" x="1264" y="-62.8" font-family="Arial" font-size="14.00" fill="#000000">mem_side</text>
</g>
<!-- system_cpu_cluster_toL2Bus_cpu_side_ports -->
<g id="node16" class="node">
<title>system_cpu_cluster_toL2Bus_cpu_side_ports</title>
<path fill="#586070" stroke="#000000" d="M480,-179.5C480,-179.5 572,-179.5 572,-179.5 578,-179.5 584,-185.5 584,-191.5 584,-191.5 584,-203.5 584,-203.5 584,-209.5 578,-215.5 572,-215.5 572,-215.5 480,-215.5 480,-215.5 474,-215.5 468,-209.5 468,-203.5 468,-203.5 468,-191.5 468,-191.5 468,-185.5 474,-179.5 480,-179.5"/>
<text text-anchor="middle" x="526" y="-193.8" font-family="Arial" font-size="14.00" fill="#000000">cpu_side_ports</text>
</g>
<!-- system_cpu_cluster_toL2Bus_cpu_side_ports&#45;&gt;system_cpu_cluster_cpus_icache_mem_side -->
<g id="edge9" class="edge">
<title>system_cpu_cluster_toL2Bus_cpu_side_ports&#45;&gt;system_cpu_cluster_cpus_icache_mem_side</title>
<path fill="none" stroke="#000000" d="M566.6788,-174.8518C576.0837,-170.3547 586.2093,-166.0777 596,-163 686.0656,-134.6881 723.7189,-177.2947 806,-131 825.2192,-120.1865 840.5532,-99.689 849.8986,-84.6938"/>
<polygon fill="#000000" stroke="#000000" points="564.9512,-171.8019 557.5531,-179.386 568.066,-178.0707 564.9512,-171.8019"/>
</g>
<!-- system_cpu_cluster_toL2Bus_cpu_side_ports&#45;&gt;system_cpu_cluster_cpus_dcache_mem_side -->
<g id="edge10" class="edge">
<title>system_cpu_cluster_toL2Bus_cpu_side_ports&#45;&gt;system_cpu_cluster_cpus_dcache_mem_side</title>
<path fill="none" stroke="#000000" d="M551.6037,-172.0903C577.5144,-146.3758 616.9234,-107.2654 639.8018,-84.5603"/>
<polygon fill="#000000" stroke="#000000" points="548.9865,-169.7566 544.354,-179.285 553.9174,-174.7251 548.9865,-169.7566"/>
</g>
<!-- system_cpu_cluster_toL2Bus_cpu_side_ports&#45;&gt;system_cpu_cluster_cpus_itb_walker_cache_mem_side -->
<g id="edge11" class="edge">
<title>system_cpu_cluster_toL2Bus_cpu_side_ports&#45;&gt;system_cpu_cluster_cpus_itb_walker_cache_mem_side</title>
<path fill="none" stroke="#000000" d="M565.3821,-174.8557C575.1107,-170.18 585.7024,-165.8246 596,-163 684.5601,-138.7079 926.3622,-173.0506 1008,-131 1027.7344,-120.8351 1043.0713,-100.0022 1052.2756,-84.7531"/>
<polygon fill="#000000" stroke="#000000" points="563.7163,-171.7758 556.3568,-179.3974 566.8629,-178.0287 563.7163,-171.7758"/>
</g>
<!-- system_cpu_cluster_toL2Bus_cpu_side_ports&#45;&gt;system_cpu_cluster_cpus_dtb_walker_cache_mem_side -->
<g id="edge12" class="edge">
<title>system_cpu_cluster_toL2Bus_cpu_side_ports&#45;&gt;system_cpu_cluster_cpus_dtb_walker_cache_mem_side</title>
<path fill="none" stroke="#000000" d="M565.0512,-174.8019C574.8582,-170.0812 585.5679,-165.7193 596,-163 728.2117,-128.5367 1087.7505,-192.014 1210,-131 1229.9928,-121.0217 1245.3763,-99.9317 1254.5189,-84.576"/>
<polygon fill="#000000" stroke="#000000" points="563.3091,-171.7607 555.9638,-179.396 566.4673,-178.0078 563.3091,-171.7607"/>
</g>
<!-- system_cpu_cluster_toL2Bus_mem_side_ports -->
<g id="node17" class="node">
<title>system_cpu_cluster_toL2Bus_mem_side_ports</title>
<path fill="#586070" stroke="#000000" d="M336.5,-179.5C336.5,-179.5 437.5,-179.5 437.5,-179.5 443.5,-179.5 449.5,-185.5 449.5,-191.5 449.5,-191.5 449.5,-203.5 449.5,-203.5 449.5,-209.5 443.5,-215.5 437.5,-215.5 437.5,-215.5 336.5,-215.5 336.5,-215.5 330.5,-215.5 324.5,-209.5 324.5,-203.5 324.5,-203.5 324.5,-191.5 324.5,-191.5 324.5,-185.5 330.5,-179.5 336.5,-179.5"/>
<text text-anchor="middle" x="387" y="-193.8" font-family="Arial" font-size="14.00" fill="#000000">mem_side_ports</text>
</g>
<!-- system_cpu_cluster_l2_cpu_side -->
<g id="node18" class="node">
<title>system_cpu_cluster_l2_cpu_side</title>
<path fill="#7f7c77" stroke="#000000" d="M438,-48.5C438,-48.5 490,-48.5 490,-48.5 496,-48.5 502,-54.5 502,-60.5 502,-60.5 502,-72.5 502,-72.5 502,-78.5 496,-84.5 490,-84.5 490,-84.5 438,-84.5 438,-84.5 432,-84.5 426,-78.5 426,-72.5 426,-72.5 426,-60.5 426,-60.5 426,-54.5 432,-48.5 438,-48.5"/>
<text text-anchor="middle" x="464" y="-62.8" font-family="Arial" font-size="14.00" fill="#000000">cpu_side</text>
</g>
<!-- system_cpu_cluster_toL2Bus_mem_side_ports&#45;&gt;system_cpu_cluster_l2_cpu_side -->
<g id="edge13" class="edge">
<title>system_cpu_cluster_toL2Bus_mem_side_ports&#45;&gt;system_cpu_cluster_l2_cpu_side</title>
<path fill="none" stroke="#000000" d="M397.7065,-179.285C410.8086,-156.9945 433.106,-119.0599 448.1857,-93.4048"/>
<polygon fill="#000000" stroke="#000000" points="451.3344,-94.9549 453.3844,-84.5603 445.2997,-91.4078 451.3344,-94.9549"/>
</g>
</g>
</svg>
