<?xml version="1.0" encoding="UTF-8" standalone="no"?>
<!DOCTYPE svg PUBLIC "-//W3C//DTD SVG 1.1//EN"
 "http://www.w3.org/Graphics/SVG/1.1/DTD/svg11.dtd">
<!-- Generated by graphviz version 2.40.1 (20161225.0304)
 -->
<!-- Title: G Pages: 1 -->
<svg width="703pt" height="638pt"
 viewBox="0.00 0.00 703.00 638.00" xmlns="http://www.w3.org/2000/svg" xmlns:xlink="http://www.w3.org/1999/xlink">
<g id="graph0" class="graph" transform="scale(1 1) rotate(0) translate(4 634)">
<title>G</title>
<polygon fill="#ffffff" stroke="transparent" points="-4,4 -4,-634 699,-634 699,4 -4,4"/>
<g id="clust1" class="cluster">
<title>cluster_root</title>
<g id="a_clust1"><a xlink:title="eventq_index=0&#10;full_system=false&#10;sim_quantum=0&#10;time_sync_enable=false&#10;time_sync_period=100000000000&#10;time_sync_spin_threshold=100000000">
<path fill="#bab6ae" stroke="#000000" d="M20,-8C20,-8 675,-8 675,-8 681,-8 687,-14 687,-20 687,-20 687,-610 687,-610 687,-616 681,-622 675,-622 675,-622 20,-622 20,-622 14,-622 8,-616 8,-610 8,-610 8,-20 8,-20 8,-14 14,-8 20,-8"/>
<text text-anchor="middle" x="347.5" y="-606.8" font-family="Arial" font-size="14.00" fill="#000000">root </text>
<text text-anchor="middle" x="347.5" y="-591.8" font-family="Arial" font-size="14.00" fill="#000000">: Root</text>
</a>
</g>
</g>
<g id="clust2" class="cluster">
<title>cluster_system</title>
<g id="a_clust2"><a xlink:title="byte_order=little&#10;cache_line_size=64&#10;eventq_index=0&#10;exit_on_work_items=false&#10;init_param=0&#10;m5ops_base=0&#10;mem_mode=timing&#10;mem_ranges=0:536870912&#10;memories=system.mem_ctrls.dram&#10;mmap_using_noreserve=false&#10;multi_thread=false&#10;&#10;um_work_ids=16&#10;&#13;eadfile=&#10;&#13;edirect_paths=system.redirect_paths0 system.redirect_paths1 system.redirect_paths2&#10;shared_backstore=&#10;symbolfile=&#10;thermal_components=&#10;thermal_model=Null&#10;work_begin_ckpt_count=0&#10;work_begin_cpu_id_exit=&#45;1&#10;work_begin_exit_count=0&#10;work_cpus_ckpt_count=0&#10;work_end_ckpt_count=0&#10;work_end_exit_count=0&#10;work_item_id=&#45;1&#10;workload=Null">
<path fill="#e4e7eb" stroke="#000000" d="M28,-16C28,-16 667,-16 667,-16 673,-16 679,-22 679,-28 679,-28 679,-564 679,-564 679,-570 673,-576 667,-576 667,-576 28,-576 28,-576 22,-576 16,-570 16,-564 16,-564 16,-28 16,-28 16,-22 22,-16 28,-16"/>
<text text-anchor="middle" x="347.5" y="-560.8" font-family="Arial" font-size="14.00" fill="#000000">system </text>
<text text-anchor="middle" x="347.5" y="-545.8" font-family="Arial" font-size="14.00" fill="#000000">: System</text>
</a>
</g>
</g>
<g id="clust4" class="cluster">
<title>cluster_system_cpu</title>
<g id="a_clust4"><a xlink:title="branchPred=system.cpu.branchPred&#10;checker=Null&#10;clk_domain=system.cpu_clk_domain&#10;cpu_id=0&#10;decodeCycleInput=true&#10;decodeInputBufferSize=3&#10;decodeInputWidth=2&#10;decodeToExecuteForwardDelay=1&#10;do_checkpoint_insts=true&#10;do_statistics_insts=true&#10;dtb=system.cpu.dtb&#10;enableIdling=true&#10;eventq_index=0&#10;executeAllowEarlyMemoryIssue=true&#10;executeBranchDelay=1&#10;executeCommitLimit=2&#10;executeCycleInput=true&#10;executeFuncUnits=system.cpu.executeFuncUnits&#10;executeInputBufferSize=7&#10;executeInputWidth=2&#10;executeIssueLimit=2&#10;executeLSQMaxStoreBufferStoresPerCycle=2&#10;executeLSQRequestsQueueSize=1&#10;executeLSQStoreBufferSize=5&#10;executeLSQTransfersQueueSize=2&#10;executeMaxAccessesInMemory=2&#10;executeMemoryCommitLimit=1&#10;executeMemoryIssueLimit=1&#10;executeMemoryWidth=0&#10;executeSetTraceTimeOnCommit=true&#10;executeSetTraceTimeOnIssue=false&#10;fetch1FetchLimit=1&#10;fetch1LineSnapWidth=0&#10;fetch1LineWidth=0&#10;fetch1ToFetch2BackwardDelay=1&#10;fetch1ToFetch2ForwardDelay=1&#10;fetch2CycleInput=true&#10;fetch2InputBufferSize=2&#10;fetch2ToDecodeForwardDelay=1&#10;function_trace=false&#10;function_trace_start=0&#10;interrupts=system.cpu.interrupts&#10;isa=system.cpu.isa&#10;itb=system.cpu.itb&#10;max_insts_all_threads=0&#10;max_insts_any_thread=0&#10;&#10;umThreads=1&#10;power_gating_on_idle=false&#10;power_model=&#10;power_state=system.cpu.power_state&#10;progress_interval=0&#10;pwr_gating_latency=300&#10;simpoint_start_insts=&#10;socket_id=0&#10;switched_out=false&#10;syscallRetryLatency=10000&#10;system=system&#10;threadPolicy=RoundRobin&#10;tracer=system.cpu.tracer&#10;wait_for_remote_gdb=false&#10;workload=system.cpu.workload">
<path fill="#bbc6d9" stroke="#000000" d="M36,-24C36,-24 542,-24 542,-24 548,-24 554,-30 554,-36 554,-36 554,-334 554,-334 554,-340 548,-346 542,-346 542,-346 36,-346 36,-346 30,-346 24,-340 24,-334 24,-334 24,-36 24,-36 24,-30 30,-24 36,-24"/>
<text text-anchor="middle" x="289" y="-330.8" font-family="Arial" font-size="14.00" fill="#000000">cpu </text>
<text text-anchor="middle" x="289" y="-315.8" font-family="Arial" font-size="14.00" fill="#000000">: MinorCPU</text>
</a>
</g>
</g>
<g id="clust89" class="cluster">
<title>cluster_system_cpu_dtb</title>
<g id="a_clust89"><a xlink:title="eventq_index=0&#10;is_stage2=false&#10;size=64&#10;sys=system&#10;walker=system.cpu.dtb.walker">
<path fill="#bab6ae" stroke="#000000" d="M413,-155C413,-155 534,-155 534,-155 540,-155 546,-161 546,-167 546,-167 546,-288 546,-288 546,-294 540,-300 534,-300 534,-300 413,-300 413,-300 407,-300 401,-294 401,-288 401,-288 401,-167 401,-167 401,-161 407,-155 413,-155"/>
<text text-anchor="middle" x="473.5" y="-284.8" font-family="Arial" font-size="14.00" fill="#000000">dtb </text>
<text text-anchor="middle" x="473.5" y="-269.8" font-family="Arial" font-size="14.00" fill="#000000">: ArmDTB</text>
</a>
</g>
</g>
<g id="clust94" class="cluster">
<title>cluster_system_cpu_dtb_walker</title>
<g id="a_clust94"><a xlink:title="clk_domain=system.cpu_clk_domain&#10;eventq_index=0&#10;is_stage2=false&#10;&#10;um_squash_per_cycle=2&#10;power_model=&#10;power_state=system.cpu.dtb.walker.power_state&#10;sys=system">
<path fill="#9f9c95" stroke="#000000" d="M421,-163C421,-163 526,-163 526,-163 532,-163 538,-169 538,-175 538,-175 538,-242 538,-242 538,-248 532,-254 526,-254 526,-254 421,-254 421,-254 415,-254 409,-248 409,-242 409,-242 409,-175 409,-175 409,-169 415,-163 421,-163"/>
<text text-anchor="middle" x="473.5" y="-238.8" font-family="Arial" font-size="14.00" fill="#000000">walker </text>
<text text-anchor="middle" x="473.5" y="-223.8" font-family="Arial" font-size="14.00" fill="#000000">: ArmTableWalker</text>
</a>
</g>
</g>
<g id="clust96" class="cluster">
<title>cluster_system_cpu_itb</title>
<g id="a_clust96"><a xlink:title="eventq_index=0&#10;is_stage2=false&#10;size=64&#10;sys=system&#10;walker=system.cpu.itb.walker">
<path fill="#bab6ae" stroke="#000000" d="M260,-155C260,-155 381,-155 381,-155 387,-155 393,-161 393,-167 393,-167 393,-288 393,-288 393,-294 387,-300 381,-300 381,-300 260,-300 260,-300 254,-300 248,-294 248,-288 248,-288 248,-167 248,-167 248,-161 254,-155 260,-155"/>
<text text-anchor="middle" x="320.5" y="-284.8" font-family="Arial" font-size="14.00" fill="#000000">itb </text>
<text text-anchor="middle" x="320.5" y="-269.8" font-family="Arial" font-size="14.00" fill="#000000">: ArmITB</text>
</a>
</g>
</g>
<g id="clust101" class="cluster">
<title>cluster_system_cpu_itb_walker</title>
<g id="a_clust101"><a xlink:title="clk_domain=system.cpu_clk_domain&#10;eventq_index=0&#10;is_stage2=false&#10;&#10;um_squash_per_cycle=2&#10;power_model=&#10;power_state=system.cpu.itb.walker.power_state&#10;sys=system">
<path fill="#9f9c95" stroke="#000000" d="M268,-163C268,-163 373,-163 373,-163 379,-163 385,-169 385,-175 385,-175 385,-242 385,-242 385,-248 379,-254 373,-254 373,-254 268,-254 268,-254 262,-254 256,-248 256,-242 256,-242 256,-175 256,-175 256,-169 262,-163 268,-163"/>
<text text-anchor="middle" x="320.5" y="-238.8" font-family="Arial" font-size="14.00" fill="#000000">walker </text>
<text text-anchor="middle" x="320.5" y="-223.8" font-family="Arial" font-size="14.00" fill="#000000">: ArmTableWalker</text>
</a>
</g>
</g>
<g id="clust107" class="cluster">
<title>cluster_system_cpu_icache</title>
<g id="a_clust107"><a xlink:title="addr_ranges=0:18446744073709551615&#10;assoc=2&#10;clk_domain=system.cpu_clk_domain&#10;clusivity=mostly_incl&#10;compressor=Null&#10;data_latency=2&#10;demand_mshr_reserve=1&#10;eventq_index=0&#10;is_read_only=true&#10;max_miss_count=0&#10;mshrs=4&#10;power_model=&#10;power_state=system.cpu.icache.power_state&#10;prefetch_on_access=false&#10;prefetcher=Null&#10;&#13;eplacement_policy=system.cpu.icache.replacement_policy&#10;&#13;esponse_latency=2&#10;sequential_access=false&#10;size=32768&#10;system=system&#10;tag_latency=2&#10;tags=system.cpu.icache.tags&#10;tgts_per_mshr=20&#10;warmup_percentage=0&#10;write_allocator=Null&#10;write_buffers=8&#10;writeback_clean=true">
<path fill="#bab6ae" stroke="#000000" d="M103,-32C103,-32 273,-32 273,-32 279,-32 285,-38 285,-44 285,-44 285,-111 285,-111 285,-117 279,-123 273,-123 273,-123 103,-123 103,-123 97,-123 91,-117 91,-111 91,-111 91,-44 91,-44 91,-38 97,-32 103,-32"/>
<text text-anchor="middle" x="188" y="-107.8" font-family="Arial" font-size="14.00" fill="#000000">icache </text>
<text text-anchor="middle" x="188" y="-92.8" font-family="Arial" font-size="14.00" fill="#000000">: L1_ICache</text>
</a>
</g>
</g>
<g id="clust113" class="cluster">
<title>cluster_system_cpu_dcache</title>
<g id="a_clust113"><a xlink:title="addr_ranges=0:18446744073709551615&#10;assoc=2&#10;clk_domain=system.cpu_clk_domain&#10;clusivity=mostly_incl&#10;compressor=Null&#10;data_latency=2&#10;demand_mshr_reserve=1&#10;eventq_index=0&#10;is_read_only=false&#10;max_miss_count=0&#10;mshrs=4&#10;power_model=&#10;power_state=system.cpu.dcache.power_state&#10;prefetch_on_access=false&#10;prefetcher=Null&#10;&#13;eplacement_policy=system.cpu.dcache.replacement_policy&#10;&#13;esponse_latency=2&#10;sequential_access=false&#10;size=65536&#10;system=system&#10;tag_latency=2&#10;tags=system.cpu.dcache.tags&#10;tgts_per_mshr=20&#10;warmup_percentage=0&#10;write_allocator=Null&#10;write_buffers=8&#10;writeback_clean=false">
<path fill="#bab6ae" stroke="#000000" d="M334,-32C334,-32 504,-32 504,-32 510,-32 516,-38 516,-44 516,-44 516,-111 516,-111 516,-117 510,-123 504,-123 504,-123 334,-123 334,-123 328,-123 322,-117 322,-111 322,-111 322,-44 322,-44 322,-38 328,-32 334,-32"/>
<text text-anchor="middle" x="419" y="-107.8" font-family="Arial" font-size="14.00" fill="#000000">dcache </text>
<text text-anchor="middle" x="419" y="-92.8" font-family="Arial" font-size="14.00" fill="#000000">: L1_DCache</text>
</a>
</g>
</g>
<g id="clust124" class="cluster">
<title>cluster_system_membus</title>
<g id="a_clust124"><a xlink:title="clk_domain=system.clk_domain&#10;eventq_index=0&#10;forward_latency=4&#10;frontend_latency=3&#10;header_latency=1&#10;max_outstanding_snoops=512&#10;max_routing_table_size=512&#10;point_of_coherency=true&#10;point_of_unification=true&#10;power_model=&#10;power_state=system.membus.power_state&#10;&#13;esponse_latency=2&#10;snoop_filter=system.membus.snoop_filter&#10;snoop_response_latency=4&#10;system=system&#10;use_default_range=false&#10;width=16">
<path fill="#6f798c" stroke="#000000" d="M407,-354C407,-354 659,-354 659,-354 665,-354 671,-360 671,-366 671,-366 671,-433 671,-433 671,-439 665,-445 659,-445 659,-445 407,-445 407,-445 401,-445 395,-439 395,-433 395,-433 395,-366 395,-366 395,-360 401,-354 407,-354"/>
<text text-anchor="middle" x="533" y="-429.8" font-family="Arial" font-size="14.00" fill="#000000">membus </text>
<text text-anchor="middle" x="533" y="-414.8" font-family="Arial" font-size="14.00" fill="#000000">: SystemXBar</text>
</a>
</g>
</g>
<g id="clust127" class="cluster">
<title>cluster_system_mem_ctrls</title>
<g id="a_clust127"><a xlink:title="clk_domain=system.clk_domain&#10;command_window=10000&#10;dram=system.mem_ctrls.dram&#10;eventq_index=0&#10;mem_sched_policy=frfcfs&#10;min_writes_per_switch=16&#10;&#10;vm=Null&#10;power_model=&#10;power_state=system.mem_ctrls.power_state&#10;qos_policy=Null&#10;qos_priorities=1&#10;qos_priority_escalation=false&#10;qos_q_policy=fifo&#10;qos_requestors= &#160;&#160;&#160;&#160;&#160;&#160;&#160;&#160;&#160;&#160;&#160;&#160;&#160;&#160;&#10;qos_syncro_scheduler=false&#10;qos_turnaround_policy=Null&#10;static_backend_latency=10000&#10;static_frontend_latency=10000&#10;system=system&#10;write_high_thresh_perc=85&#10;write_low_thresh_perc=50">
<path fill="#bab6ae" stroke="#000000" d="M596,-163C596,-163 659,-163 659,-163 665,-163 671,-169 671,-175 671,-175 671,-242 671,-242 671,-248 665,-254 659,-254 659,-254 596,-254 596,-254 590,-254 584,-248 584,-242 584,-242 584,-175 584,-175 584,-169 590,-163 596,-163"/>
<text text-anchor="middle" x="627.5" y="-238.8" font-family="Arial" font-size="14.00" fill="#000000">mem_ctrls </text>
<text text-anchor="middle" x="627.5" y="-223.8" font-family="Arial" font-size="14.00" fill="#000000">: MemCtrl</text>
</a>
</g>
</g>
<!-- system_system_port -->
<g id="node1" class="node">
<title>system_system_port</title>
<path fill="#b6b8bc" stroke="#000000" d="M425,-493.5C425,-493.5 497,-493.5 497,-493.5 503,-493.5 509,-499.5 509,-505.5 509,-505.5 509,-517.5 509,-517.5 509,-523.5 503,-529.5 497,-529.5 497,-529.5 425,-529.5 425,-529.5 419,-529.5 413,-523.5 413,-517.5 413,-517.5 413,-505.5 413,-505.5 413,-499.5 419,-493.5 425,-493.5"/>
<text text-anchor="middle" x="461" y="-507.8" font-family="Arial" font-size="14.00" fill="#000000">system_port</text>
</g>
<!-- system_membus_cpu_side_ports -->
<g id="node10" class="node">
<title>system_membus_cpu_side_ports</title>
<path fill="#586070" stroke="#000000" d="M415,-362.5C415,-362.5 507,-362.5 507,-362.5 513,-362.5 519,-368.5 519,-374.5 519,-374.5 519,-386.5 519,-386.5 519,-392.5 513,-398.5 507,-398.5 507,-398.5 415,-398.5 415,-398.5 409,-398.5 403,-392.5 403,-386.5 403,-386.5 403,-374.5 403,-374.5 403,-368.5 409,-362.5 415,-362.5"/>
<text text-anchor="middle" x="461" y="-376.8" font-family="Arial" font-size="14.00" fill="#000000">cpu_side_ports</text>
</g>
<!-- system_system_port&#45;&gt;system_membus_cpu_side_ports -->
<g id="edge1" class="edge">
<title>system_system_port&#45;&gt;system_membus_cpu_side_ports</title>
<path fill="none" stroke="#000000" d="M461,-493.285C461,-471.3856 461,-434.3861 461,-408.7663"/>
<polygon fill="#000000" stroke="#000000" points="464.5001,-408.5603 461,-398.5603 457.5001,-408.5603 464.5001,-408.5603"/>
</g>
<!-- system_cpu_icache_port -->
<g id="node2" class="node">
<title>system_cpu_icache_port</title>
<path fill="#959ead" stroke="#000000" d="M44,-171.5C44,-171.5 112,-171.5 112,-171.5 118,-171.5 124,-177.5 124,-183.5 124,-183.5 124,-195.5 124,-195.5 124,-201.5 118,-207.5 112,-207.5 112,-207.5 44,-207.5 44,-207.5 38,-207.5 32,-201.5 32,-195.5 32,-195.5 32,-183.5 32,-183.5 32,-177.5 38,-171.5 44,-171.5"/>
<text text-anchor="middle" x="78" y="-185.8" font-family="Arial" font-size="14.00" fill="#000000">icache_port</text>
</g>
<!-- system_cpu_icache_cpu_side -->
<g id="node6" class="node">
<title>system_cpu_icache_cpu_side</title>
<path fill="#94918b" stroke="#000000" d="M111,-40.5C111,-40.5 163,-40.5 163,-40.5 169,-40.5 175,-46.5 175,-52.5 175,-52.5 175,-64.5 175,-64.5 175,-70.5 169,-76.5 163,-76.5 163,-76.5 111,-76.5 111,-76.5 105,-76.5 99,-70.5 99,-64.5 99,-64.5 99,-52.5 99,-52.5 99,-46.5 105,-40.5 111,-40.5"/>
<text text-anchor="middle" x="137" y="-54.8" font-family="Arial" font-size="14.00" fill="#000000">cpu_side</text>
</g>
<!-- system_cpu_icache_port&#45;&gt;system_cpu_icache_cpu_side -->
<g id="edge2" class="edge">
<title>system_cpu_icache_port&#45;&gt;system_cpu_icache_cpu_side</title>
<path fill="none" stroke="#000000" d="M86.2037,-171.285C96.1989,-149.0923 113.1783,-111.3923 124.7302,-85.7431"/>
<polygon fill="#000000" stroke="#000000" points="127.9507,-87.1155 128.866,-76.5603 121.5681,-84.2409 127.9507,-87.1155"/>
</g>
<!-- system_cpu_dcache_port -->
<g id="node3" class="node">
<title>system_cpu_dcache_port</title>
<path fill="#959ead" stroke="#000000" d="M154,-171.5C154,-171.5 228,-171.5 228,-171.5 234,-171.5 240,-177.5 240,-183.5 240,-183.5 240,-195.5 240,-195.5 240,-201.5 234,-207.5 228,-207.5 228,-207.5 154,-207.5 154,-207.5 148,-207.5 142,-201.5 142,-195.5 142,-195.5 142,-183.5 142,-183.5 142,-177.5 148,-171.5 154,-171.5"/>
<text text-anchor="middle" x="191" y="-185.8" font-family="Arial" font-size="14.00" fill="#000000">dcache_port</text>
</g>
<!-- system_cpu_dcache_cpu_side -->
<g id="node8" class="node">
<title>system_cpu_dcache_cpu_side</title>
<path fill="#94918b" stroke="#000000" d="M342,-40.5C342,-40.5 394,-40.5 394,-40.5 400,-40.5 406,-46.5 406,-52.5 406,-52.5 406,-64.5 406,-64.5 406,-70.5 400,-76.5 394,-76.5 394,-76.5 342,-76.5 342,-76.5 336,-76.5 330,-70.5 330,-64.5 330,-64.5 330,-52.5 330,-52.5 330,-46.5 336,-40.5 342,-40.5"/>
<text text-anchor="middle" x="368" y="-54.8" font-family="Arial" font-size="14.00" fill="#000000">cpu_side</text>
</g>
<!-- system_cpu_dcache_port&#45;&gt;system_cpu_dcache_cpu_side -->
<g id="edge3" class="edge">
<title>system_cpu_dcache_port&#45;&gt;system_cpu_dcache_cpu_side</title>
<path fill="none" stroke="#000000" d="M219.339,-171.2273C239.1612,-158.2157 266.0837,-140.0781 289,-123 306.01,-110.3235 324.4022,-95.3845 339.157,-83.0775"/>
<polygon fill="#000000" stroke="#000000" points="341.5359,-85.6504 346.948,-76.5422 337.0372,-80.2874 341.5359,-85.6504"/>
</g>
<!-- system_cpu_dtb_walker_port -->
<g id="node4" class="node">
<title>system_cpu_dtb_walker_port</title>
<path fill="#7f7c77" stroke="#000000" d="M446,-171.5C446,-171.5 476,-171.5 476,-171.5 482,-171.5 488,-177.5 488,-183.5 488,-183.5 488,-195.5 488,-195.5 488,-201.5 482,-207.5 476,-207.5 476,-207.5 446,-207.5 446,-207.5 440,-207.5 434,-201.5 434,-195.5 434,-195.5 434,-183.5 434,-183.5 434,-177.5 440,-171.5 446,-171.5"/>
<text text-anchor="middle" x="461" y="-185.8" font-family="Arial" font-size="14.00" fill="#000000">port</text>
</g>
<!-- system_cpu_itb_walker_port -->
<g id="node5" class="node">
<title>system_cpu_itb_walker_port</title>
<path fill="#7f7c77" stroke="#000000" d="M335,-171.5C335,-171.5 365,-171.5 365,-171.5 371,-171.5 377,-177.5 377,-183.5 377,-183.5 377,-195.5 377,-195.5 377,-201.5 371,-207.5 365,-207.5 365,-207.5 335,-207.5 335,-207.5 329,-207.5 323,-201.5 323,-195.5 323,-195.5 323,-183.5 323,-183.5 323,-177.5 329,-171.5 335,-171.5"/>
<text text-anchor="middle" x="350" y="-185.8" font-family="Arial" font-size="14.00" fill="#000000">port</text>
</g>
<!-- system_cpu_icache_mem_side -->
<g id="node7" class="node">
<title>system_cpu_icache_mem_side</title>
<path fill="#94918b" stroke="#000000" d="M205,-40.5C205,-40.5 265,-40.5 265,-40.5 271,-40.5 277,-46.5 277,-52.5 277,-52.5 277,-64.5 277,-64.5 277,-70.5 271,-76.5 265,-76.5 265,-76.5 205,-76.5 205,-76.5 199,-76.5 193,-70.5 193,-64.5 193,-64.5 193,-52.5 193,-52.5 193,-46.5 199,-40.5 205,-40.5"/>
<text text-anchor="middle" x="235" y="-54.8" font-family="Arial" font-size="14.00" fill="#000000">mem_side</text>
</g>
<!-- system_cpu_dcache_mem_side -->
<g id="node9" class="node">
<title>system_cpu_dcache_mem_side</title>
<path fill="#94918b" stroke="#000000" d="M436,-40.5C436,-40.5 496,-40.5 496,-40.5 502,-40.5 508,-46.5 508,-52.5 508,-52.5 508,-64.5 508,-64.5 508,-70.5 502,-76.5 496,-76.5 496,-76.5 436,-76.5 436,-76.5 430,-76.5 424,-70.5 424,-64.5 424,-64.5 424,-52.5 424,-52.5 424,-46.5 430,-40.5 436,-40.5"/>
<text text-anchor="middle" x="466" y="-54.8" font-family="Arial" font-size="14.00" fill="#000000">mem_side</text>
</g>
<!-- system_membus_cpu_side_ports&#45;&gt;system_cpu_dtb_walker_port -->
<g id="edge7" class="edge">
<title>system_membus_cpu_side_ports&#45;&gt;system_cpu_dtb_walker_port</title>
<path fill="none" stroke="#000000" d="M461,-352.09C461,-312.3133 461,-241.1585 461,-207.7584"/>
<polygon fill="#000000" stroke="#000000" points="457.5001,-352.1861 461,-362.1861 464.5001,-352.1862 457.5001,-352.1861"/>
</g>
<!-- system_membus_cpu_side_ports&#45;&gt;system_cpu_itb_walker_port -->
<g id="edge6" class="edge">
<title>system_membus_cpu_side_ports&#45;&gt;system_cpu_itb_walker_port</title>
<path fill="none" stroke="#000000" d="M415.3785,-356.3448C411.5649,-353.1976 408.0206,-349.7483 405,-346 371.0273,-303.8425 357.2901,-239.2023 352.3893,-207.8367"/>
<polygon fill="#000000" stroke="#000000" points="413.3886,-359.2266 423.5034,-362.3796 417.5625,-353.6071 413.3886,-359.2266"/>
</g>
<!-- system_membus_cpu_side_ports&#45;&gt;system_cpu_icache_mem_side -->
<g id="edge4" class="edge">
<title>system_membus_cpu_side_ports&#45;&gt;system_cpu_icache_mem_side</title>
<path fill="none" stroke="#000000" d="M518.9666,-358.4162C530.7963,-353.3645 540.2201,-348.6927 542,-346 553.7025,-328.2959 555.9048,-171.0324 542,-155 509.0544,-117.0134 364.2891,-142.6396 318,-123 292.6325,-112.2371 268.3137,-91.7305 252.6323,-76.7193"/>
<polygon fill="#000000" stroke="#000000" points="517.4341,-355.2626 509.5381,-362.3268 520.116,-361.7285 517.4341,-355.2626"/>
</g>
<!-- system_membus_cpu_side_ports&#45;&gt;system_cpu_dcache_mem_side -->
<g id="edge5" class="edge">
<title>system_membus_cpu_side_ports&#45;&gt;system_cpu_dcache_mem_side</title>
<path fill="none" stroke="#000000" d="M514.3824,-359.0098C519.2976,-357.2394 524.2238,-355.5409 529,-354 542.5419,-349.6311 551.2857,-357.2486 560,-346 585.9939,-312.4464 575.9851,-194.3193 560,-155 546.5233,-121.851 515.5794,-93.8563 492.8607,-76.6955"/>
<polygon fill="#000000" stroke="#000000" points="513.1535,-355.7325 504.9856,-362.4805 515.5788,-362.2989 513.1535,-355.7325"/>
</g>
<!-- system_membus_mem_side_ports -->
<g id="node11" class="node">
<title>system_membus_mem_side_ports</title>
<path fill="#586070" stroke="#000000" d="M549.5,-362.5C549.5,-362.5 650.5,-362.5 650.5,-362.5 656.5,-362.5 662.5,-368.5 662.5,-374.5 662.5,-374.5 662.5,-386.5 662.5,-386.5 662.5,-392.5 656.5,-398.5 650.5,-398.5 650.5,-398.5 549.5,-398.5 549.5,-398.5 543.5,-398.5 537.5,-392.5 537.5,-386.5 537.5,-386.5 537.5,-374.5 537.5,-374.5 537.5,-368.5 543.5,-362.5 549.5,-362.5"/>
<text text-anchor="middle" x="600" y="-376.8" font-family="Arial" font-size="14.00" fill="#000000">mem_side_ports</text>
</g>
<!-- system_mem_ctrls_port -->
<g id="node12" class="node">
<title>system_mem_ctrls_port</title>
<path fill="#94918b" stroke="#000000" d="M606,-171.5C606,-171.5 636,-171.5 636,-171.5 642,-171.5 648,-177.5 648,-183.5 648,-183.5 648,-195.5 648,-195.5 648,-201.5 642,-207.5 636,-207.5 636,-207.5 606,-207.5 606,-207.5 600,-207.5 594,-201.5 594,-195.5 594,-195.5 594,-183.5 594,-183.5 594,-177.5 600,-171.5 606,-171.5"/>
<text text-anchor="middle" x="621" y="-185.8" font-family="Arial" font-size="14.00" fill="#000000">port</text>
</g>
<!-- system_membus_mem_side_ports&#45;&gt;system_mem_ctrls_port -->
<g id="edge8" class="edge">
<title>system_membus_mem_side_ports&#45;&gt;system_mem_ctrls_port</title>
<path fill="none" stroke="#000000" d="M602.0136,-362.1861C605.6904,-328.7443 613.5141,-257.586 617.8836,-217.8441"/>
<polygon fill="#000000" stroke="#000000" points="621.3786,-218.0811 618.9925,-207.7584 614.4205,-217.316 621.3786,-218.0811"/>
</g>
</g>
</svg>
